<svg xmlns="http://www.w3.org/2000/svg" xmlns:xlink="http://www.w3.org/1999/xlink"><defs><symbol viewBox="0 0 11 7" id="arrow"><path opacity=".54" fill-rule="evenodd" clip-rule="evenodd" d="M9.142.808L5.5 4.45 1.858.808.75 1.917l4.75 4.75 4.75-4.75L9.142.808z" /></symbol><symbol viewBox="0 0 11 7" id="arrow-acco"><path opacity=".54" fill-rule="evenodd" clip-rule="evenodd" d="M9.142.809L5.5 4.45 1.858.81.75 1.917l4.75 4.75 4.75-4.75L9.142.809z" /></symbol><symbol viewBox="0 0 5 8" id="arrow-footer"><path fill-rule="evenodd" clip-rule="evenodd" d="M.017 1.317L2.7 4 .017 6.683l.816.817 3.5-3.5L.833.5l-.816.817z" /></symbol><symbol viewBox="0 0 17 10" id="arrow-nav-button"><path fill-rule="evenodd" clip-rule="evenodd" d="M2.558 9.892L8.5 3.95l5.942 5.942 1.808-1.809L8.5.333.75 8.083l1.808 1.809z" /></symbol><symbol viewBox="0 0 84 94" id="certificate"><path d="M84 88.498C84 91.524 81.524 94 78.498 94H5.502C2.476 94 0 91.524 0 88.498v-82.9C0 2.572 2.476.096 5.502.096h72.996C81.524.096 84 2.572 84 5.598v9.72a1.84 1.84 0 0 1-1.834 1.835 1.84 1.84 0 0 1-1.834-1.834v-9.72a1.84 1.84 0 0 0-1.834-1.835H5.502a1.84 1.84 0 0 0-1.834 1.834v82.9a1.84 1.84 0 0 0 1.834 1.834h72.996a1.84 1.84 0 0 0 1.834-1.834v-5.136a1.84 1.84 0 0 1 1.834-1.834A1.84 1.84 0 0 1 84 83.362v5.136z" /><path d="M83.01 42.353a5.36 5.36 0 0 1 0-5.76c.256-.403.33-.88.201-1.338a1.662 1.662 0 0 0-.843-1.045 5.351 5.351 0 0 1-2.88-4.989 1.658 1.658 0 0 0-.495-1.265 1.7 1.7 0 0 0-1.265-.496 5.351 5.351 0 0 1-4.989-2.88 1.662 1.662 0 0 0-1.045-.843 1.644 1.644 0 0 0-1.34.202 5.36 5.36 0 0 1-5.758 0 1.644 1.644 0 0 0-1.34-.202 1.662 1.662 0 0 0-1.044.844 5.351 5.351 0 0 1-4.99 2.88 1.658 1.658 0 0 0-1.265.495 1.7 1.7 0 0 0-.495 1.265 5.35 5.35 0 0 1-2.88 4.989c-.421.22-.715.587-.843 1.045-.128.459-.055.935.202 1.339a5.36 5.36 0 0 1 0 5.759c-.257.403-.33.88-.202 1.339.128.458.422.825.844 1.045.495.257.953.605 1.339.99l.091.092a5.318 5.318 0 0 1 1.45 3.907c-.02.477.146.917.494 1.265a1.7 1.7 0 0 0 1.266.495 5.351 5.351 0 0 1 4.989 2.88c.22.422.586.715 1.045.844.458.128.935.055 1.339-.202a5.267 5.267 0 0 1 2.88-.844c1.008 0 1.998.275 2.879.844.403.257.88.33 1.339.202a1.662 1.662 0 0 0 1.045-.844 5.351 5.351 0 0 1 4.989-2.88c.477.019.917-.146 1.265-.495a1.7 1.7 0 0 0 .495-1.265 5.351 5.351 0 0 1 2.88-4.989c.422-.22.715-.587.844-1.045a1.633 1.633 0 0 0-.202-1.34zm-6.786-5.282l-7.392 7.391a1.801 1.801 0 0 1-1.302.532c-.477 0-.935-.184-1.302-.532l-3.723-3.723a1.827 1.827 0 0 1 0-2.586 1.827 1.827 0 0 1 2.586 0l2.42 2.42 6.09-6.088a1.826 1.826 0 0 1 2.586 0c.752.715.752 1.87.037 2.586zM68.392 58.07a1.676 1.676 0 0 0-1.797 0c-.936.606-2.036.881-3.136.844V69.92l2.732-2.733a1.827 1.827 0 0 1 2.586 0l2.733 2.733V58.914h-.257c-.99 0-1.999-.293-2.86-.843z" /><path d="M62.908 75.623c-.532.513-1.32.678-1.999.385-.678-.294-1.137-.954-1.137-1.688V57.19a5.749 5.749 0 0 1-.825-1.155 1.677 1.677 0 0 0-1.56-.899 5.303 5.303 0 0 1-4.016-1.559 5.33 5.33 0 0 1-1.559-4.016 1.566 1.566 0 0 0-.11-.66H16.103a1.84 1.84 0 0 1-1.834-1.835 1.84 1.84 0 0 1 1.834-1.834H48.42a5.516 5.516 0 0 1-.201-.587 5.338 5.338 0 0 1 .66-4.255c.055-.091.11-.183.147-.293H16.103a1.84 1.84 0 0 1-1.834-1.834 1.84 1.84 0 0 1 1.834-1.834h32.005a5.355 5.355 0 0 1 .128-2.091 5.326 5.326 0 0 1 2.696-3.356c.569-.294.935-.917.899-1.56a5.303 5.303 0 0 1 1.558-4.016 5.33 5.33 0 0 1 4.017-1.559 1.677 1.677 0 0 0 1.56-.899 5.315 5.315 0 0 1 3.355-2.696 5.378 5.378 0 0 1 4.054.532v-.11.11a5.237 5.237 0 0 1 4.053-.532c.66.184 1.266.477 1.816.88v-8.564H12.417V81.528H71.51v-6.437l-4.017-4.017-4.585 4.549zM20.963 21.738h8.932a1.84 1.84 0 0 1 1.834 1.834 1.84 1.84 0 0 1-1.834 1.834h-8.932a1.84 1.84 0 0 1-1.834-1.834 1.84 1.84 0 0 1 1.834-1.834zm28.905 45.76l-3.631 3.631a3.636 3.636 0 0 1-2.586 1.064c-.936 0-1.871-.349-2.586-1.064l-2.256-2.256-1.45 1.45a1.827 1.827 0 0 1-2.585 0 1.827 1.827 0 0 1 0-2.587l1.467-1.467c1.43-1.43 3.742-1.43 5.154 0l2.256 2.256 3.631-3.632a1.827 1.827 0 0 1 2.586 0 1.849 1.849 0 0 1 0 2.605zm-1.302-9.812H27.603a1.84 1.84 0 0 1-1.834-1.834 1.84 1.84 0 0 1 1.834-1.834h20.963a1.84 1.84 0 0 1 1.834 1.834 1.828 1.828 0 0 1-1.834 1.834z" /></symbol><symbol viewBox="0 0 95 94" id="chats"><path d="M80.082 25H59.571c-1.117 0-2.031.914-2.031 2.03v.163c-1.604 4.001-4.996 10.886-11.84 16.958-8.367 7.433-17.303 9.606-21.486 10.317h-.183c-1.117 0-2.031.914-2.031 2.03v14.013c0 7.84 6.377 14.216 14.216 14.216h19.902v6.905c0 .813.488 1.564 1.26 1.869.243.101.507.162.771.162.528 0 1.056-.203 1.442-.589l8.347-8.347h12.144c7.84 0 14.216-6.377 14.216-14.216V39.216c0-7.84-6.377-14.216-14.216-14.216zm-38.16 42.465a2.01 2.01 0 0 1-1.441.59 2.097 2.097 0 0 1-1.442-.59 2.01 2.01 0 0 1-.59-1.442c0-.528.224-1.056.59-1.442a2.01 2.01 0 0 1 1.442-.589c.548 0 1.056.224 1.442.59.386.385.589.893.589 1.441 0 .549-.224 1.056-.59 1.442zm41.45 0H49.295a1.993 1.993 0 0 1-1.99-1.99c0-1.097.893-1.99 1.99-1.99h34.098c1.096 0 1.99.893 1.99 1.99a2.024 2.024 0 0 1-2.01 1.99zm0-11.129H41.476a1.994 1.994 0 0 1-1.99-1.99c0-1.097.893-1.99 1.99-1.99h41.896c1.097 0 1.99.893 1.99 1.99s-.893 1.99-1.99 1.99zm0-11.109h-28.98a1.993 1.993 0 0 1-1.99-1.99c0-1.097.893-1.99 1.99-1.99h29c1.097 0 1.99.893 1.99 1.99a2.024 2.024 0 0 1-2.01 1.99z" /><path d="M27.55 0h-4.084C10.524 0 0 10.59 0 23.6c0 3.769.855 7.375 2.55 10.72a23.753 23.753 0 0 0 6.165 7.651v9.405c0 .65.388 1.25 1 1.494.194.081.404.13.614.13.42 0 .84-.162 1.146-.471l6.036-6.075c1.937.504 3.938.764 5.956.764h4.083c12.927 0 23.45-10.59 23.45-23.601C51 10.607 40.477 0 27.55 0zm-1.356 36.286c-.307.309-.71.471-1.146.471-.436 0-.84-.178-1.146-.47a1.613 1.613 0 0 1-.468-1.154c0-.422.178-.845.468-1.153.307-.309.71-.471 1.146-.471.436 0 .84.178 1.146.47.307.31.468.715.468 1.154 0 .439-.177.845-.468 1.153zm.468-11.353V28.7c0 .893-.726 1.624-1.614 1.624a1.624 1.624 0 0 1-1.614-1.624v-3.898c0-1.462.985-2.697 2.405-3.005 1.743-.39 2.921-1.998 2.808-3.801-.129-1.787-1.55-3.232-3.34-3.362a3.602 3.602 0 0 0-3.857 3.606c-.001.893-.727 1.624-1.615 1.624a1.624 1.624 0 0 1-1.614-1.624c0-1.9.791-3.736 2.179-5.036a6.775 6.775 0 0 1 5.148-1.835c3.374.227 6.101 2.972 6.343 6.383.21 3.395-1.985 6.4-5.229 7.18z" /></symbol><symbol viewBox="0 0 50 50" id="clock"><path d="M25 0C11.215 0 0 11.215 0 25s11.215 25 25 25 25-11.215 25-25S38.785 0 25 0zm0 48.333C12.134 48.333 1.667 37.866 1.667 25 1.667 12.134 12.134 1.667 25 1.667c12.866 0 23.333 10.467 23.333 23.333 0 12.866-10.467 23.333-23.333 23.333z" /><path d="M25.833 21.684v-8.452a.833.833 0 1 0-1.666 0v8.452a3.329 3.329 0 0 0-2.382 2.382h-5.952a.833.833 0 1 0 0 1.667h5.952a3.33 3.33 0 0 0 3.215 2.5 3.337 3.337 0 0 0 3.333-3.334 3.33 3.33 0 0 0-2.5-3.215zM25 26.566c-.92 0-1.667-.748-1.667-1.667s.748-1.666 1.667-1.666c.92 0 1.667.747 1.667 1.666 0 .92-.748 1.667-1.667 1.667zM25 8.233c.46 0 .833-.373.833-.834v-.833a.833.833 0 1 0-1.666 0v.833c0 .461.373.834.833.834zM25 41.566a.833.833 0 0 0-.833.833v.834a.833.833 0 1 0 1.666 0v-.834a.833.833 0 0 0-.833-.833zM43.333 24.066H42.5a.833.833 0 1 0 0 1.667h.833a.833.833 0 1 0 0-1.667zM7.5 24.066h-.833a.833.833 0 1 0 0 1.667H7.5a.833.833 0 1 0 0-1.667zM37.374 11.346l-.589.589a.832.832 0 1 0 1.178 1.178l.59-.589a.833.833 0 1 0-1.179-1.178zM12.037 36.684l-.59.59a.833.833 0 1 0 1.179 1.178l.589-.59a.832.832 0 1 0-1.178-1.178zM37.963 36.684a.832.832 0 1 0-1.178 1.178l.59.59a.83.83 0 0 0 1.178 0 .833.833 0 0 0 0-1.179l-.59-.589zM12.626 11.346a.832.832 0 1 0-1.178 1.178l.589.59a.831.831 0 0 0 1.178 0 .832.832 0 0 0 0-1.179l-.59-.59z" /></symbol><symbol viewBox="0 0 93 95" id="gears"><path d="M62.323 54.852h-6.221a25.276 25.276 0 0 0-1.438-3.456l4.424-4.424a2.22 2.22 0 0 0 0-3.125l-7.963-7.963a2.22 2.22 0 0 0-3.124 0l-4.424 4.424a25.423 25.423 0 0 0-3.374-1.382v-6.194a2.219 2.219 0 0 0-2.212-2.212H26.655a2.219 2.219 0 0 0-2.212 2.212v6.47c-1.106.387-2.212.83-3.263 1.383l-4.59-4.618a2.22 2.22 0 0 0-3.124 0L5.53 43.93a2.22 2.22 0 0 0 0 3.125l4.645 4.645a22.393 22.393 0 0 0-1.327 3.152H2.212A2.219 2.219 0 0 0 0 57.064v11.254c0 1.216.995 2.212 2.212 2.212h6.636c.36 1.106.802 2.156 1.3 3.207l-4.618 4.7a2.22 2.22 0 0 0 0 3.125l7.963 7.963a2.22 2.22 0 0 0 3.125 0l4.59-4.59c1.05.526 2.129.996 3.262 1.383v6.47c0 1.217.996 2.212 2.212 2.212h11.254a2.219 2.219 0 0 0 2.212-2.212v-6.332c1.161-.36 2.295-.83 3.373-1.382l4.424 4.424a2.22 2.22 0 0 0 3.125 0l7.963-7.964a2.22 2.22 0 0 0 0-3.124l-4.424-4.424a25.287 25.287 0 0 0 1.438-3.456h6.221a2.219 2.219 0 0 0 2.212-2.212V57.064c-.028-1.189-.968-2.184-2.157-2.212zm-22.065 7.963c-.027 4.369-3.594 7.908-7.963 7.908v.055a7.965 7.965 0 0 1-7.963-7.963 7.965 7.965 0 0 1 7.963-7.963 7.965 7.965 0 0 1 7.963 7.963zm-15.926-9.484l.028-.027s-.028 0-.028.027zM92.08 23.86l-3.806-1.425c.036-.811 0-1.623-.09-2.435l3.716-1.695a1.43 1.43 0 0 0 .704-1.912l-3.049-6.69a1.432 1.432 0 0 0-1.913-.704l-3.68 1.713a16.323 16.323 0 0 0-1.75-1.605l1.425-3.805a1.464 1.464 0 0 0-.848-1.858L75.843.847c-.74-.27-1.57.109-1.858.848l-1.48 3.95c-.775-.018-1.533 0-2.309.09l-1.75-3.842a1.432 1.432 0 0 0-1.912-.703l-6.676 3.03a1.43 1.43 0 0 0-.703 1.912l1.786 3.895a16.316 16.316 0 0 0-1.534 1.623l-4.06-1.515c-.74-.27-1.569.109-1.858.848l-2.562 6.89c-.27.739.109 1.568.848 1.857l4.06 1.515c-.036.757-.018 1.515.072 2.254l-3.897 1.804a1.43 1.43 0 0 0-.704 1.911l3.05 6.691a1.432 1.432 0 0 0 1.912.704l3.843-1.75c.523.56 1.082 1.1 1.678 1.587l-1.48 3.95c-.27.74.108 1.57.848 1.858l6.874 2.579c.74.27 1.57-.108 1.858-.848l1.444-3.86c.793.037 1.587.019 2.381-.072l1.696 3.716a1.432 1.432 0 0 0 1.913.703l6.693-3.048a1.43 1.43 0 0 0 .704-1.912l-1.696-3.715a17.225 17.225 0 0 0 1.66-1.785l3.806 1.425c.74.27 1.57-.109 1.859-.848l2.58-6.871c.234-.74-.127-1.57-.848-1.858zm-15.299-.162a5.208 5.208 0 0 1-6.675 3.011l-.018.037c-2.688-1.01-4.06-4.004-3.05-6.691 1.011-2.688 4.006-4.058 6.694-3.048 2.689 1.01 4.06 4.003 3.05 6.69zm-7.56-9.433h.019c0-.018-.018 0-.018 0z" /></symbol><symbol viewBox="0 0 165 51" id="logo"><path d="M18.9 30.81c-.245.66-.654 1.2-1.2 1.59-.546.42-1.118.63-1.69.63h-7.2c-.574 0-.983-.21-1.2-.63-.22-.42-.192-.96.054-1.59L18.109 3.99c.245-.66.655-1.17 1.173-1.59.518-.42 1.09-.63 1.663-.63h7.2c.573 0 .982.21 1.2.63.219.42.191.96-.054 1.59l-2.755 7.29h-2.509l2.727-7.02h-6.218L10.282 30.6H16.5l3-7.68h2.51l-3.11 7.89zM33.682 33.03H31.2l1.718-6.96h-5.563l-3.682 6.96h-2.4l.027-.09L38.482 1.71h2.454l-7.254 31.32zm-.11-9.39l4.146-16.95-9.054 16.95h4.909zM48.955 33.03h-2.619l1.31-16.74.545-.57h4.445L57.11 4.23h-6.382l-11.209 28.8h-2.482L49.227 1.77h9.382c.573 0 .982.21 1.2.63.218.42.191.96-.054 1.59L55.09 15.87c-.573 1.5-1.773 2.25-3.6 2.25-.191 0-.436 0-.764-.03-.327-.03-.572-.03-.736-.03-.355 4.98-.682 9.96-1.036 14.97zM71.618 30.81c-.245.66-.654 1.2-1.172 1.59-.519.42-1.091.63-1.664.63h-7.036c-.573 0-.982-.21-1.2-.63-.219-.42-.191-.96.054-1.59l3.082-7.92h2.482l-3 7.68h6.054l2.891-7.44-3.654-10.41c-.246-.72-.219-1.5.109-2.37l2.454-6.33c.246-.66.655-1.17 1.173-1.59.545-.42 1.09-.63 1.69-.63h7.037c.573 0 .982.21 1.173.63.19.42.19.96-.082 1.59l-2.836 7.26H76.69l2.727-7.02h-6.054l-2.564 6.6 3.71 10.44c.245.69.19 1.47-.137 2.34l-2.755 7.17zM84.355 33.03h-9.191L87.327 1.77h9.082l-.955 2.46h-6.6L84.328 15.9h6l-.981 2.49h-6L78.6 30.57h6.71l-.956 2.46zM100.145 33.03h-2.618l1.31-16.74.545-.57h4.445L108.3 4.23h-6.382l-11.209 28.8h-2.482l12.164-31.26h9.382c.572 0 .982.21 1.2.63.218.42.191.96-.055 1.59l-4.609 11.85c-.573 1.5-1.773 2.25-3.6 2.25-.191 0-.436 0-.764-.03-.327-.03-.572-.03-.736-.03-.382 5.01-.709 9.99-1.064 15zM126.955 1.77l-17.046 31.35h-2.345l7.363-31.35h2.482l-6.218 24.9-.682 2.04c.191-.48.491-1.14.927-2.04l13.173-24.9h2.346zM120.791 33.03h-2.482l12.164-31.26h2.482l-12.164 31.26zM137.536 30.81c-.245.66-.654 1.2-1.2 1.59-.545.42-1.118.63-1.691.63h-7.2c-.572 0-.981-.21-1.2-.63-.218-.42-.19-.96.055-1.59l10.445-26.82c.246-.66.655-1.17 1.173-1.59.518-.42 1.091-.63 1.664-.63h7.2c.573 0 .982.21 1.2.63.218.42.191.96-.055 1.59l-2.836 7.26h-2.455l2.728-7.02h-6.219l-10.254 26.34h6.218l3-7.68h2.509l-3.082 7.92zM150.218 33.03h-9.191l12.164-31.26h9.082l-.955 2.46h-6.6l-4.554 11.67h6l-.982 2.49h-6l-4.746 12.18h6.709l-.927 2.46zM5.482 36.81h1.145l-3.463 8.88h3.818l-.41 1.08h-4.99l3.9-9.96zM14.81 43.14c-1.037 2.64-3.11 3.81-4.665 3.81-1.745 0-2.509-1.41-1.636-3.69.927-2.4 2.891-3.81 4.664-3.81 1.827.03 2.509 1.5 1.636 3.69zm-5.1.09c-.6 1.56-.274 2.76.872 2.76 1.118 0 2.4-1.17 3.027-2.79.464-1.2.518-2.76-.845-2.76-1.364 0-2.51 1.41-3.055 2.79zM23.182 39.63c-.218.51-.491 1.08-.818 1.95l-1.61 4.14c-.627 1.65-1.309 2.64-2.181 3.27-.873.66-1.855.87-2.673.87-.764 0-1.527-.21-1.91-.6l.683-.99c.3.3.873.57 1.663.57 1.2 0 2.346-.69 3.028-2.49l.3-.81h-.028c-.627.66-1.5 1.2-2.509 1.2-1.581 0-2.127-1.5-1.363-3.48.954-2.43 2.89-3.81 4.363-3.81 1.119 0 1.473.66 1.527 1.23h.028l.463-1.08h1.037v.03zm-2.318 2.82c.081-.21.136-.42.163-.6.082-.75-.245-1.38-1.09-1.38-1.119 0-2.319 1.05-2.946 2.7-.546 1.41-.355 2.58.9 2.58.709 0 1.555-.51 2.127-1.32.164-.21.273-.48.355-.69l.49-1.29zM29.482 43.14c-1.037 2.64-3.11 3.81-4.664 3.81-1.745 0-2.509-1.41-1.636-3.69.927-2.4 2.89-3.81 4.663-3.81 1.828.03 2.482 1.5 1.637 3.69zm-5.1.09c-.6 1.56-.273 2.76.872 2.76 1.119 0 2.4-1.17 3.028-2.79.463-1.2.518-2.76-.846-2.76-1.39 0-2.536 1.41-3.054 2.79zM34.527 37.59l-.79 2.04H35.4l-.382.99h-1.663l-1.5 3.87c-.355.9-.328 1.38.327 1.38.3 0 .545-.03.709-.09l-.327.96c-.273.09-.655.18-1.091.18-.546 0-.9-.18-1.037-.54-.19-.39-.054-1.02.273-1.86l1.527-3.9h-.981l.381-.99h.982l.655-1.71 1.254-.33zM38.782 37.62c-.164.45-.6.81-1.064.81-.409 0-.573-.36-.382-.81.191-.45.628-.81 1.037-.81.436 0 .573.36.409.81zM33.9 46.77l2.782-7.14h1.172l-2.781 7.14H33.9zM38.89 41.97c.355-.93.628-1.65.846-2.34h1.037l-.437 1.23h.028c.818-.87 1.772-1.38 2.809-1.38 1.554 0 2.154 1.47 1.309 3.63-1.01 2.58-2.891 3.84-4.418 3.84-.846 0-1.419-.42-1.528-1.11h-.027l-1.5 3.87h-1.145l3.027-7.74zm.41 1.89c-.082.18-.11.36-.164.54-.136.9.328 1.53 1.146 1.53 1.227 0 2.373-1.11 3.027-2.76.546-1.44.355-2.67-.873-2.67-.79 0-1.772.63-2.372 1.62-.11.15-.218.36-.3.54l-.464 1.2z" /></symbol><symbol viewBox="0 0 59 57" id="map"><path d="M58.471.156a1.091 1.091 0 0 0-1.074-.029L39.333 9.69 21.271.127c-.015-.008-.031-.01-.045-.016a1.096 1.096 0 0 0-.16-.06c-.031-.01-.06-.02-.091-.026a1.136 1.136 0 0 0-.184-.018c-.027-.001-.055-.005-.083-.003a1.057 1.057 0 0 0-.175.027c-.033.006-.066.01-.097.02-.008.003-.015.003-.022.005L.747 6.612A1.092 1.092 0 0 0 0 7.648V54.63a1.093 1.093 0 0 0 1.438 1.036l19.28-6.427 18.2 7.494c.014.007.032.005.047.01.12.042.243.072.368.072.099 0 .196-.016.291-.043.03-.008.059-.023.09-.033.043-.017.09-.029.13-.05l18.575-9.834c.357-.19.581-.562.581-.966V1.093c0-.384-.201-.739-.529-.937zM2.185 8.436L19.667 2.61v29.492c-.47.085-.933.181-1.381.299a1.092 1.092 0 1 0 .56 2.113c.262-.07.549-.105.82-.162v12.937l-17.48 5.825V8.436zm19.667 25.61c.35-.028.69-.073 1.05-.08a1.093 1.093 0 0 0-.023-2.185h-.024c-.339.007-.672.026-1.003.049V2.908l16.389 8.676V34.74a16.33 16.33 0 0 1-2.405-.286 1.093 1.093 0 0 0-.415 2.145c.968.188 1.907.28 2.82.316V54.09l-16.39-6.749V34.045zM56.815 45.23l-16.39 8.677v-17.11c.407-.185.678-.6.642-1.071a1.086 1.086 0 0 0-.641-.897V11.584l16.389-8.676V45.23z" /><path d="M12.018 8.741a5.47 5.47 0 0 0-5.462 5.463 5.472 5.472 0 0 0 4.37 5.352v2.296a1.092 1.092 0 1 0 2.185 0v-2.296a5.472 5.472 0 0 0 4.37-5.352 5.47 5.47 0 0 0-5.463-5.463zm0 8.74a3.282 3.282 0 0 1-3.277-3.277 3.282 3.282 0 0 1 3.277-3.278 3.282 3.282 0 0 1 3.278 3.278 3.282 3.282 0 0 1-3.277 3.278zM49.243 29.143a1.094 1.094 0 0 0 1.416-.62c.514-1.31.926-2.79 1.227-4.397a1.094 1.094 0 0 0-.873-1.275 1.101 1.101 0 0 0-1.275.874c-.275 1.473-.65 2.819-1.113 4.002-.22.56.057 1.195.618 1.416zM13.99 34.244a15.155 15.155 0 0 0-3.534 3.081 1.093 1.093 0 0 0 1.67 1.409 12.93 12.93 0 0 1 3.025-2.638 1.094 1.094 0 0 0-1.16-1.852zM9.426 40.728a1.093 1.093 0 0 0-1.45.534c-1.121 2.432-1.399 4.395-1.41 4.478a1.09 1.09 0 0 0 1.083 1.24c.537 0 1.004-.395 1.082-.94.002-.018.252-1.745 1.23-3.861a1.094 1.094 0 0 0-.535-1.451zM44.166 35.76c.167 0 .338-.039.496-.12 1.412-.722 2.656-1.746 3.697-3.043a1.092 1.092 0 1 0-1.704-1.368c-.848 1.056-1.853 1.886-2.988 2.466a1.092 1.092 0 0 0 .499 2.065zM31.87 33.25a13.666 13.666 0 0 1-.781-.352 1.087 1.087 0 0 0-.224-.085 35.597 35.597 0 0 0-3.467-.715 1.091 1.091 0 1 0-.33 2.16c1.012.156 2.068.372 3.143.645.147.07.426.202.818.365a1.091 1.091 0 0 0 1.43-.587c.231-.56-.03-1.2-.588-1.431zM51.268 20.684l.07.002c.572 0 1.053-.443 1.09-1.023.068-1.05.102-2.162.102-3.3 0-.38-.004-.764-.011-1.156-.011-.604-.536-1.063-1.112-1.073-.604.01-1.084.51-1.073 1.112.006.38.01.752.01 1.117a49.63 49.63 0 0 1-.097 3.16 1.094 1.094 0 0 0 1.02 1.161zM9.06 30.273a1.09 1.09 0 0 0 1.546 0l1.412-1.413 1.413 1.413a1.09 1.09 0 0 0 1.545 0 1.091 1.091 0 0 0 0-1.545l-1.413-1.413 1.413-1.413a1.091 1.091 0 1 0-1.545-1.545L12.02 25.77l-1.413-1.413a1.091 1.091 0 1 0-1.545 1.545l1.413 1.413-1.413 1.413a1.091 1.091 0 0 0 0 1.545z" /></symbol><symbol viewBox="0 0 15 13" id="map-footer"><path d="M8.921 1.087l-3.823.9v10.2l3.823-.675V1.087zm.255-.576a.256.256 0 0 1 .255.255v10.96c0 .124-.089.23-.21.25l-4.334.766a.256.256 0 0 1-.3-.25V1.784c.001-.118.082-.22.198-.248L9.118.517a.251.251 0 0 1 .058-.006z" /><path d="M.106.048a.253.253 0 0 1 .23-.035l4.588 1.53a.255.255 0 0 1 .174.242V12.49a.254.254 0 0 1-.347.238L.163 10.944A.255.255 0 0 1 0 10.706V.256C0 .172.04.095.106.047zM9.231.516l4.589 1.02c.116.025.2.129.2.248v10.96a.255.255 0 0 1-.311.25l-4.588-1.02a.256.256 0 0 1-.2-.249V.765a.255.255 0 0 1 .31-.25z" /></symbol><symbol viewBox="0 0 14 11" id="message"><path d="M1.344 3.39c.177.125.711.497 1.602 1.114.89.617 1.573 1.092 2.047 1.425l.332.239c.169.122.31.221.421.297.112.075.248.16.407.253.159.094.308.164.449.211.14.047.27.07.39.07h.016c.12 0 .25-.023.39-.07.141-.047.291-.117.45-.21.159-.094.294-.179.406-.254.112-.076.253-.175.422-.297l.332-.239 3.656-2.539c.38-.265.698-.586.953-.96.255-.375.383-.769.383-1.18 0-.344-.124-.638-.371-.883A1.207 1.207 0 0 0 12.75 0H1.25C.85 0 .54.135.326.406.109.677 0 1.016 0 1.422c0 .328.143.683.43 1.066.286.383.59.684.913.902z" /><path d="M13.218 4.227a162.41 162.41 0 0 0-3.89 2.695c-.297.218-.538.39-.723.511a4.46 4.46 0 0 1-.738.375 2.248 2.248 0 0 1-.86.192h-.015c-.266 0-.552-.064-.86-.192a4.462 4.462 0 0 1-.738-.375 18.492 18.492 0 0 1-.722-.511C3.969 6.406 2.674 5.508.789 4.227A4.138 4.138 0 0 1 0 3.547V9.75c0 .344.122.638.367.882.245.245.54.368.883.368h11.5c.343 0 .638-.123.882-.368.245-.244.367-.538.367-.882V3.547c-.224.25-.484.476-.78.68z" /></symbol><symbol viewBox="0 0 49 49" id="phone"><path d="M9.891 32.573c4.833 5.777 10.65 10.325 17.29 13.544 2.528 1.198 5.909 2.619 9.675 2.863.234.01.457.02.69.02 2.529 0 4.56-.873 6.214-2.67.01-.01.03-.03.04-.05.59-.712 1.26-1.351 1.96-2.031.477-.457.965-.934 1.432-1.422 2.162-2.254 2.162-5.117-.02-7.3l-6.102-6.101c-1.036-1.076-2.274-1.645-3.574-1.645-1.3 0-2.548.569-3.614 1.635l-3.635 3.634a19.26 19.26 0 0 0-1.005-.528 12.552 12.552 0 0 1-1.117-.609c-3.31-2.101-6.314-4.843-9.188-8.366-1.452-1.837-2.426-3.38-3.106-4.954.954-.863 1.847-1.766 2.71-2.65.305-.314.62-.63.934-.944 1.097-1.096 1.686-2.365 1.686-3.655 0-1.29-.579-2.558-1.686-3.655L16.45 4.664c-.355-.356-.69-.7-1.036-1.056-.67-.69-1.37-1.401-2.06-2.04C12.307.541 11.078.003 9.78.003c-1.29 0-2.528.538-3.615 1.573L2.368 5.374C.988 6.755.206 8.43.043 10.37c-.193 2.426.254 5.005 1.412 8.122 1.776 4.822 4.457 9.3 8.436 14.081zm-7.37-21.99c.121-1.35.64-2.477 1.614-3.452l3.777-3.777c.588-.568 1.238-.863 1.868-.863.619 0 1.248.295 1.827.883.68.63 1.32 1.29 2.01 1.99.345.356.7.711 1.056 1.077L17.7 9.466c.63.63.954 1.269.954 1.899 0 .629-.325 1.269-.954 1.898-.315.315-.63.64-.945.954-.944.955-1.827 1.858-2.802 2.721l-.05.051c-.843.843-.711 1.645-.508 2.254.01.03.02.05.03.081.782 1.878 1.869 3.665 3.564 5.797 3.046 3.757 6.254 6.67 9.787 8.914.437.284.904.508 1.34.731.406.203.782.396 1.117.61.04.02.071.04.112.06.335.173.66.254.984.254.813 0 1.34-.518 1.513-.69l3.797-3.797c.59-.59 1.229-.904 1.858-.904.772 0 1.401.477 1.797.904l6.122 6.111c1.218 1.219 1.208 2.538-.03 3.828a33.84 33.84 0 0 1-1.35 1.35c-.711.69-1.452 1.401-2.122 2.203-1.168 1.26-2.559 1.848-4.356 1.848-.172 0-.355-.01-.528-.02-3.33-.213-6.426-1.513-8.751-2.62-6.315-3.056-11.858-7.39-16.458-12.893-3.787-4.559-6.335-8.803-8.02-13.35-1.046-2.793-1.442-5.037-1.28-7.077z" /></symbol><symbol viewBox="0 0 14 14" id="phone-footer"><path d="M13.97 10.848c-.04-.12-.291-.295-.755-.527a23.334 23.334 0 0 0-.537-.298 49.127 49.127 0 0 1-.632-.348 21.03 21.03 0 0 1-.532-.308c-.026-.02-.109-.078-.248-.175a2.798 2.798 0 0 0-.353-.213.65.65 0 0 0-.284-.07c-.132 0-.298.095-.497.283a4.844 4.844 0 0 0-.546.617 6 6 0 0 1-.527.617c-.186.189-.339.283-.458.283a.677.677 0 0 1-.224-.05 2.307 2.307 0 0 1-.204-.084 3.69 3.69 0 0 1-.238-.14 6.062 6.062 0 0 0-.189-.114 10.45 10.45 0 0 1-2.337-1.73 10.444 10.444 0 0 1-1.73-2.337 5.747 5.747 0 0 0-.114-.189 3.587 3.587 0 0 1-.14-.238 2.155 2.155 0 0 1-.084-.204.673.673 0 0 1-.05-.224c0-.12.095-.272.284-.457a5.99 5.99 0 0 1 .616-.527c.222-.166.428-.348.617-.547.189-.199.283-.365.283-.497a.65.65 0 0 0-.07-.284 2.763 2.763 0 0 0-.213-.353 13.03 13.03 0 0 0-.174-.248c-.1-.166-.202-.343-.309-.532-.106-.189-.222-.4-.348-.632A23.62 23.62 0 0 0 3.68.786C3.447.322 3.272.07 3.152.03A.557.557 0 0 0 2.943 0c-.179 0-.412.033-.7.1a3.938 3.938 0 0 0-.682.208C1.23.448.878.852.507 1.521.17 2.144 0 2.761 0 3.371c0 .179.012.353.035.522.023.169.064.36.124.572.06.212.108.37.144.472l.204.552c.1.265.16.427.179.487.232.65.507 1.23.825 1.74.524.848 1.238 1.725 2.143 2.63.905.905 1.781 1.62 2.63 2.143.51.318 1.09.593 1.74.825.06.02.222.08.487.18.266.099.45.167.552.203.103.037.26.085.472.145.213.06.403.1.572.124.17.023.343.035.522.035.61 0 1.227-.17 1.85-.507.67-.371 1.074-.723 1.213-1.054.073-.166.142-.393.208-.682.067-.288.1-.521.1-.7a.554.554 0 0 0-.03-.21z" /></symbol><symbol viewBox="0 0 15 12" id="tick"><path d="M6 11.5l-6-6L2.5 3 6 6.5l6-6L14.5 3 6 11.5z" /></symbol><symbol viewBox="0 0 96 122" id="work"><path d="M38.75 40.15V48H11.5v-6.2l13.1-12.25c1.267-1.2 2.117-2.217 2.55-3.05.433-.867.65-1.733.65-2.6 0-1.133-.383-2.017-1.15-2.65-.767-.633-1.883-.95-3.35-.95-1.3 0-2.5.3-3.6.9-1.067.567-1.95 1.4-2.65 2.5L9.7 19.6c1.367-2.267 3.283-4.05 5.75-5.35 2.467-1.3 5.383-1.95 8.75-1.95 2.667 0 5.017.433 7.05 1.3 2.067.867 3.667 2.117 4.8 3.75 1.167 1.6 1.75 3.467 1.75 5.6 0 1.9-.417 3.7-1.25 5.4-.8 1.667-2.367 3.567-4.7 5.7l-6.6 6.1h13.5zm35.638 1.15h-5.2V48h-9.65v-6.7h-18.5v-6.45L56.737 13h10.25l-14.25 20.45h7.1V27.5h9.35v5.95h5.2v7.85zM58.15 68v6.2L45.8 103H35l11.8-27.15h-9.2v5.4h-8.45V68h29zM0 55h82v6H0z" /></symbol></defs></svg>