<svg width="84" height="94" viewBox="0 0 84 94" fill="none" xmlns="http://www.w3.org/2000/svg">
<path d="M84 88.4978C84 91.524 81.524 94 78.4978 94H5.50218C2.47598 94 0 91.524 0 88.4978V5.59825C0 2.57205 2.47598 0.0960693 5.50218 0.0960693H78.4978C81.524 0.0960693 84 2.57205 84 5.59825V15.3188C84 16.3275 83.1747 17.1528 82.1659 17.1528C81.1572 17.1528 80.3319 16.3275 80.3319 15.3188V5.59825C80.3319 4.58952 79.5066 3.76419 78.4978 3.76419H5.50218C4.49345 3.76419 3.66812 4.58952 3.66812 5.59825V88.4978C3.66812 89.5066 4.49345 90.3319 5.50218 90.3319H78.4978C79.5066 90.3319 80.3319 89.5066 80.3319 88.4978V83.3624C80.3319 82.3537 81.1572 81.5284 82.1659 81.5284C83.1747 81.5284 84 82.3537 84 83.3624V88.4978Z" fill="#FF5253"/>
<path d="M83.0097 42.3529C81.891 40.6105 81.891 38.3363 83.0097 36.5939C83.2665 36.1904 83.3399 35.7136 83.2115 35.255C83.0831 34.7965 82.7897 34.4297 82.3678 34.2096C80.5154 33.2559 79.3966 31.2935 79.4883 29.221C79.5067 28.7441 79.3416 28.3039 78.9932 27.9555C78.663 27.6253 78.2045 27.4419 77.7276 27.4603C75.6552 27.552 73.6927 26.4332 72.739 24.5808C72.5189 24.159 72.1521 23.8655 71.6936 23.7371C71.2351 23.6087 70.7582 23.6821 70.3547 23.9389C68.6124 25.0577 66.3381 25.0577 64.5958 23.9389C64.1923 23.6821 63.7154 23.6087 63.2569 23.7371C62.7984 23.8655 62.4316 24.159 62.2115 24.5808C61.2578 26.4332 59.2953 27.552 57.2228 27.4603C56.746 27.4419 56.3058 27.607 55.9573 27.9555C55.6272 28.2856 55.4438 28.7441 55.4621 29.221C55.5538 31.2935 54.4351 33.2559 52.5827 34.2096C52.1608 34.4297 51.8674 34.7965 51.739 35.255C51.6106 35.7136 51.684 36.1904 51.9407 36.5939C53.0595 38.3363 53.0595 40.6105 51.9407 42.3529C51.684 42.7563 51.6106 43.2332 51.739 43.6917C51.8674 44.1502 52.1608 44.517 52.5827 44.7371C53.0779 44.9939 53.5364 45.3424 53.9215 45.7275C53.9582 45.7642 53.9766 45.7825 54.0132 45.8192C54.9853 46.8463 55.5355 48.2585 55.4621 49.7258C55.4438 50.2026 55.6089 50.6428 55.9573 50.9913C56.2875 51.3214 56.746 51.5048 57.2228 51.4865C59.2953 51.3948 61.2578 52.5136 62.2115 54.366C62.4316 54.7878 62.7984 55.0812 63.2569 55.2096C63.7154 55.338 64.1923 55.2646 64.5958 55.0079C65.4761 54.4393 66.4665 54.1642 67.4752 54.1642C68.484 54.1642 69.4744 54.4393 70.3547 55.0079C70.7582 55.2646 71.2351 55.338 71.6936 55.2096C72.1521 55.0812 72.5189 54.7878 72.739 54.366C73.6927 52.5136 75.6552 51.3948 77.7276 51.4865C78.2045 51.5048 78.6447 51.3398 78.9932 50.9913C79.3233 50.6612 79.5067 50.2026 79.4883 49.7258C79.3966 47.6533 80.5154 45.6908 82.3678 44.7371C82.7897 44.517 83.0831 44.1502 83.2115 43.6917C83.3399 43.2149 83.2665 42.7563 83.0097 42.3529ZM76.2237 37.0708L68.8324 44.462C68.4656 44.8288 68.0071 44.9939 67.5303 44.9939C67.0534 44.9939 66.5949 44.8105 66.2281 44.462L62.5049 40.7389C61.7897 40.0236 61.7897 38.8681 62.5049 38.1529C63.2202 37.4376 64.3757 37.4376 65.091 38.1529L67.5119 40.5738L73.601 34.4847C74.3163 33.7694 75.4718 33.7694 76.187 34.4847C76.939 35.2 76.939 36.3555 76.2237 37.0708Z" fill="#FF5253"/>
<path d="M68.3922 58.0708C67.842 57.7223 67.1451 57.7223 66.5949 58.0708C65.6595 58.676 64.5591 58.9511 63.4586 58.9144V69.9188L66.1914 67.186C66.9067 66.4708 68.0621 66.4708 68.7774 67.186L71.5101 69.9188V58.9144C71.4184 58.9144 71.3451 58.9144 71.2534 58.9144C70.263 58.9144 69.2543 58.621 68.3922 58.0708Z" fill="#FF5253"/>
<path d="M62.9083 75.6227C62.3764 76.1362 61.5878 76.3013 60.9092 76.0079C60.2306 75.7144 59.7721 75.0542 59.7721 74.3205V57.1904C59.4603 56.8419 59.1668 56.4568 58.9468 56.0349C58.6533 55.4664 58.0297 55.0996 57.3878 55.1362C55.8839 55.2096 54.435 54.6411 53.3712 53.5773C52.3075 52.5135 51.7389 51.0463 51.8123 49.5607C51.8306 49.3223 51.7756 49.1022 51.7022 48.9004H16.1031C15.0944 48.9004 14.269 48.0751 14.269 47.0664C14.269 46.0576 15.0944 45.2323 16.1031 45.2323H48.4192C48.3459 45.0489 48.2725 44.8472 48.2175 44.6454C47.8323 43.1965 48.0708 41.6376 48.8778 40.3904C48.9328 40.2987 48.9878 40.207 49.0245 40.0969H16.1031C15.0944 40.0969 14.269 39.2716 14.269 38.2629C14.269 37.2542 15.0944 36.4288 16.1031 36.4288H48.1075C48.0157 35.7319 48.0524 35.0166 48.2358 34.338C48.621 32.8891 49.6114 31.6603 50.9319 30.9817C51.5005 30.6882 51.8673 30.0646 51.8306 29.4227C51.7572 27.9188 52.3258 26.4699 53.3895 25.4061C54.4533 24.3424 55.9206 23.7738 57.4061 23.8472C58.0481 23.8838 58.6716 23.517 58.9651 22.9485C59.662 21.6096 60.8725 20.6376 62.3214 20.2524C63.697 19.8856 65.1642 20.0873 66.3747 20.7843V20.6742V20.7843C67.6035 20.069 69.0708 19.8673 70.428 20.2524C71.0882 20.4358 71.6935 20.7293 72.2437 21.1328V12.5677H70.483H68.2271H64.559H60.6524H12.4166V16.4926V22.8751V24.2507V29.2026V81.5284H63.8987H64.5406H68.2088H68.9974H70.4096H71.5101V75.0908L67.4935 71.0742L62.9083 75.6227ZM20.9634 21.738H29.8952C30.904 21.738 31.7293 22.5633 31.7293 23.5721C31.7293 24.5808 30.904 25.4061 29.8952 25.4061H20.9634C19.9546 25.4061 19.1293 24.5808 19.1293 23.5721C19.1293 22.5633 19.9546 21.738 20.9634 21.738ZM49.8682 67.4978L46.2367 71.1293C45.5214 71.8445 44.5861 72.193 43.6507 72.193C42.7153 72.193 41.7799 71.8445 41.0647 71.1293L38.8088 68.8734L37.3599 70.3223C36.6446 71.0376 35.4891 71.0376 34.7738 70.3223C34.0585 69.607 34.0585 68.4515 34.7738 67.7362L36.2411 66.269C37.6716 64.8384 39.9826 64.8384 41.3948 66.269L43.6507 68.5249L47.2821 64.8935C47.9974 64.1782 49.1529 64.1782 49.8682 64.8935C50.5834 65.6087 50.5834 66.7825 49.8682 67.4978ZM48.566 57.6856H27.6027C26.5939 57.6856 25.7686 56.8603 25.7686 55.8515C25.7686 54.8428 26.5939 54.0175 27.6027 54.0175H48.566C49.5747 54.0175 50.4 54.8428 50.4 55.8515C50.4 56.8603 49.593 57.6856 48.566 57.6856Z" fill="#FF5253"/>
</svg>
