<svg width="95" height="94" viewBox="0 0 95 94" fill="none" xmlns="http://www.w3.org/2000/svg">
<path d="M80.0824 25H59.5708C58.4538 25 57.5399 25.9139 57.5399 27.0309C57.5399 27.0918 57.5399 27.1324 57.5399 27.1933C55.9356 31.1941 52.544 38.0787 45.7001 44.1509C37.3329 51.5839 28.3972 53.7569 24.2136 54.4677C24.1527 54.4677 24.0918 54.4677 24.0309 54.4677C22.9139 54.4677 22 55.3816 22 56.4985V70.5114C22 78.3505 28.3769 84.7274 36.216 84.7274H56.1183V91.6323C56.1183 92.4446 56.6057 93.1961 57.3775 93.5007C57.6212 93.6022 57.8852 93.6632 58.1492 93.6632C58.6772 93.6632 59.2052 93.4601 59.5911 93.0742L67.9379 84.7274H80.0824C87.9215 84.7274 94.2984 78.3505 94.2984 70.5114V39.216C94.2984 31.3769 87.9215 25 80.0824 25ZM41.9227 67.4651C41.5368 67.851 41.0291 68.0541 40.4808 68.0541C39.9324 68.0541 39.4247 67.8307 39.0389 67.4651C38.653 67.0793 38.4499 66.5716 38.4499 66.0232C38.4499 65.4952 38.6733 64.9672 39.0389 64.5813C39.4247 64.1955 39.9324 63.9924 40.4808 63.9924C41.0291 63.9924 41.5368 64.2158 41.9227 64.5813C42.3085 64.9672 42.5116 65.4749 42.5116 66.0232C42.5116 66.5716 42.2882 67.0793 41.9227 67.4651ZM83.3724 67.4651H49.2947C48.198 67.4651 47.3044 66.5716 47.3044 65.4749C47.3044 64.3783 48.198 63.4847 49.2947 63.4847H83.3927C84.4894 63.4847 85.3829 64.3783 85.3829 65.4749C85.3626 66.5716 84.4691 67.4651 83.3724 67.4651ZM83.3724 56.3361H41.4759C40.3792 56.3361 39.4856 55.4425 39.4856 54.3458C39.4856 53.2492 40.3792 52.3556 41.4759 52.3556H83.3724C84.4691 52.3556 85.3626 53.2492 85.3626 54.3458C85.3626 55.4425 84.4691 56.3361 83.3724 56.3361ZM83.3724 45.2273H54.3921C53.2955 45.2273 52.4019 44.3337 52.4019 43.2371C52.4019 42.1404 53.2955 41.2468 54.3921 41.2468H83.3927C84.4894 41.2468 85.3829 42.1404 85.3829 43.2371C85.3626 44.3337 84.4691 45.2273 83.3724 45.2273Z" fill="#FF5253"/>
<path d="M27.5497 0H23.4665C10.5228 0 0 10.5903 0 23.6007C0 27.369 0.85538 30.9749 2.55 34.3209C4.03481 37.2608 6.16519 39.8921 8.71519 41.9712V51.3757C8.71519 52.0254 9.10253 52.6264 9.71582 52.8701C9.90949 52.9513 10.1193 53 10.3291 53C10.7487 53 11.1684 52.8376 11.475 52.529L17.5111 46.4542C19.4478 46.9577 21.449 47.2176 23.4665 47.2176H27.5497C40.4772 47.2176 51 36.6273 51 23.6169C51 10.6065 40.4772 0 27.5497 0ZM26.194 36.2862C25.8873 36.5949 25.4839 36.7573 25.0481 36.7573C24.6123 36.7573 24.2089 36.5786 23.9022 36.2862C23.5956 35.9776 23.4342 35.5716 23.4342 35.133C23.4342 34.7107 23.6117 34.2884 23.9022 33.9798C24.2089 33.6712 24.6123 33.5087 25.0481 33.5087C25.4839 33.5087 25.8873 33.6874 26.194 33.9798C26.5006 34.2884 26.662 34.6945 26.662 35.133C26.662 35.5716 26.4845 35.9776 26.194 36.2862ZM26.662 24.9326V28.7009C26.662 29.5942 25.9358 30.3252 25.0481 30.3252C24.1604 30.3252 23.4342 29.5942 23.4342 28.7009V24.8026C23.4342 23.3408 24.4187 22.1063 25.8389 21.7977C27.582 21.4079 28.7601 19.7999 28.6472 17.9969C28.518 16.2102 27.0978 14.7646 25.3063 14.6347C24.2896 14.5697 23.3212 14.9108 22.5949 15.593C21.8525 16.2915 21.449 17.2335 21.449 18.2406C21.449 19.1339 20.7228 19.8649 19.8351 19.8649C18.9475 19.8649 18.2212 19.1339 18.2212 18.2406C18.2212 16.3402 19.012 14.5048 20.4 13.2053C21.8041 11.8897 23.6278 11.24 25.5484 11.3699C28.9215 11.5973 31.649 14.3423 31.8911 17.7533C32.1009 21.148 29.906 24.1529 26.662 24.9326Z" fill="#FF5253"/>
</svg>
