<svg width="50" height="50" viewBox="0 0 50 50" fill="none" xmlns="http://www.w3.org/2000/svg">
<path d="M25 0C11.215 0 0 11.215 0 25C0 38.785 11.215 50 25 50C38.785 50 50 38.785 50 25C50 11.215 38.785 0 25 0ZM25 48.3333C12.1342 48.3333 1.66667 37.8658 1.66667 25C1.66667 12.1342 12.1342 1.66667 25 1.66667C37.8658 1.66667 48.3333 12.1342 48.3333 25C48.3333 37.8658 37.8658 48.3333 25 48.3333Z" fill="#FF5253"/>
<path d="M25.8333 21.6842V13.2325C25.8333 12.7717 25.46 12.3992 25 12.3992C24.54 12.3992 24.1667 12.7717 24.1667 13.2325V21.6842C23.0008 21.9875 22.0883 22.9 21.785 24.0658H15.8333C15.3733 24.0658 15 24.4383 15 24.8992C15 25.36 15.3733 25.7325 15.8333 25.7325H21.785C22.1575 27.1658 23.4517 28.2325 25 28.2325C26.8383 28.2325 28.3333 26.7375 28.3333 24.8992C28.3333 23.35 27.2667 22.0567 25.8333 21.6842ZM25 26.5658C24.0808 26.5658 23.3333 25.8183 23.3333 24.8992C23.3333 23.98 24.0808 23.2325 25 23.2325C25.9192 23.2325 26.6667 23.98 26.6667 24.8992C26.6667 25.8183 25.9192 26.5658 25 26.5658Z" fill="#FF5253"/>
<path d="M25 8.23251C25.46 8.23251 25.8333 7.86001 25.8333 7.39918V6.56585C25.8333 6.10501 25.46 5.73251 25 5.73251C24.54 5.73251 24.1667 6.10501 24.1667 6.56585V7.39918C24.1667 7.86001 24.54 8.23251 25 8.23251Z" fill="#FF5253"/>
<path d="M25 41.5658C24.54 41.5658 24.1667 41.9383 24.1667 42.3992V43.2325C24.1667 43.6933 24.54 44.0658 25 44.0658C25.46 44.0658 25.8333 43.6933 25.8333 43.2325V42.3992C25.8333 41.9383 25.46 41.5658 25 41.5658Z" fill="#FF5253"/>
<path d="M43.3333 24.0658H42.5C42.04 24.0658 41.6667 24.4383 41.6667 24.8992C41.6667 25.36 42.04 25.7325 42.5 25.7325H43.3333C43.7933 25.7325 44.1667 25.36 44.1667 24.8992C44.1667 24.4383 43.7933 24.0658 43.3333 24.0658Z" fill="#FF5253"/>
<path d="M7.5 24.0658H6.66666C6.20666 24.0658 5.83333 24.4383 5.83333 24.8992C5.83333 25.36 6.20666 25.7325 6.66666 25.7325H7.5C7.96 25.7325 8.33333 25.36 8.33333 24.8992C8.33333 24.4383 7.96 24.0658 7.5 24.0658Z" fill="#FF5253"/>
<path d="M37.3742 11.3458L36.785 11.935C36.4592 12.2608 36.4592 12.7875 36.785 13.1133C36.9475 13.2758 37.1608 13.3575 37.3742 13.3575C37.5875 13.3575 37.8008 13.2758 37.9633 13.1133L38.5525 12.5242C38.8783 12.1983 38.8783 11.6717 38.5525 11.3458C38.2267 11.02 37.7 11.0208 37.3742 11.3458Z" fill="#FF5253"/>
<path d="M12.0367 36.6842L11.4475 37.2733C11.1217 37.5992 11.1217 38.1258 11.4475 38.4517C11.61 38.6142 11.8233 38.6958 12.0367 38.6958C12.25 38.6958 12.4633 38.6142 12.6258 38.4517L13.215 37.8625C13.5408 37.5367 13.5408 37.01 13.215 36.6842C12.8892 36.3583 12.3617 36.3592 12.0367 36.6842Z" fill="#FF5253"/>
<path d="M37.9633 36.6842C37.6375 36.3583 37.1108 36.3583 36.785 36.6842C36.4592 37.01 36.4592 37.5367 36.785 37.8625L37.3742 38.4517C37.5367 38.6142 37.75 38.6958 37.9633 38.6958C38.1767 38.6958 38.39 38.6142 38.5525 38.4517C38.8783 38.1258 38.8783 37.5992 38.5525 37.2733L37.9633 36.6842Z" fill="#FF5253"/>
<path d="M12.6258 11.3458C12.3 11.02 11.7733 11.02 11.4475 11.3458C11.1217 11.6717 11.1217 12.1983 11.4475 12.5242L12.0367 13.1133C12.1992 13.2758 12.4125 13.3575 12.6258 13.3575C12.8392 13.3575 13.0525 13.2758 13.215 13.1133C13.5408 12.7875 13.5408 12.2608 13.215 11.935L12.6258 11.3458Z" fill="#FF5253"/>
</svg>
