<svg width="93" height="95" viewBox="0 0 93 95" fill="none" xmlns="http://www.w3.org/2000/svg">
<path d="M62.3233 54.8521H56.102C55.7149 53.6631 55.2172 52.5018 54.6642 51.3958L59.0882 46.9718C59.9454 46.1147 59.9454 44.7045 59.0882 43.8474L51.125 35.8841C50.2679 35.027 48.8577 35.027 48.0006 35.8841L43.5765 40.3081C42.4705 39.7551 41.3645 39.3127 40.2032 38.9256V32.732C40.2032 31.5154 39.2078 30.52 37.9912 30.52H26.6547C25.4381 30.52 24.4427 31.5154 24.4427 32.732V39.2021C23.3367 39.5892 22.2307 40.0316 21.18 40.5846L16.5901 35.9671C15.7329 35.1099 14.3227 35.1099 13.4656 35.9671L5.53002 43.9303C4.67286 44.7875 4.67286 46.1976 5.53002 47.0548L10.1752 51.7C9.64988 52.723 9.20748 53.7737 8.84803 54.8521H2.21201C0.995403 54.8521 0 55.8475 0 57.0641V68.3177C0 69.5343 0.995403 70.5297 2.21201 70.5297H8.84803C9.20748 71.6357 9.64988 72.6864 10.1476 73.7371L5.53002 78.4376C4.67286 79.2948 4.67286 80.7049 5.53002 81.5621L13.4932 89.5253C14.3504 90.3824 15.7605 90.3824 16.6177 89.5253L21.2076 84.9354C22.2583 85.4607 23.3367 85.9308 24.4703 86.3179V92.788C24.4703 94.0046 25.4657 95 26.6823 95H37.9359C39.1525 95 40.1479 94.0046 40.1479 92.788V86.4561C41.3092 86.0967 42.4429 85.6266 43.5212 85.0736L47.9453 89.4976C48.8024 90.3548 50.2126 90.3548 51.0697 89.4976L59.0329 81.5344C59.8901 80.6773 59.8901 79.2671 59.0329 78.41L54.6089 73.986C55.1619 72.8799 55.6596 71.7186 56.0467 70.5297H62.268C63.4846 70.5297 64.48 69.5343 64.48 68.3177V57.0641C64.4524 55.8751 63.5122 54.8797 62.3233 54.8521ZM40.2585 62.8153C40.2309 67.184 36.664 70.7232 32.2953 70.7232V70.7785C27.8989 70.7785 24.3321 67.2117 24.3321 62.8153C24.3321 58.4189 27.8989 54.8521 32.2953 54.8521C36.6917 54.8521 40.2585 58.4189 40.2585 62.8153ZM24.3321 53.3313L24.3597 53.3037C24.3597 53.3037 24.3321 53.3037 24.3321 53.3313Z" fill="#FF5253"/>
<path d="M92.0808 23.8599L88.274 22.4352C88.3101 21.6236 88.274 20.812 88.1838 20.0004L91.9004 18.3052C92.6221 17.9805 92.9468 17.1149 92.604 16.3935L89.555 9.70251C89.2302 8.98111 88.3642 8.65648 87.6425 8.99914L83.962 10.7125C83.4207 10.1353 82.8254 9.5943 82.2119 9.10735L83.6372 5.30198C83.9079 4.56255 83.529 3.73295 82.7893 3.44439L75.8432 0.847358C75.1034 0.576834 74.2735 0.955567 73.9849 1.695L72.5054 5.64465C71.7296 5.62661 70.9719 5.64465 70.1961 5.73482L68.446 1.89338C68.1213 1.17199 67.2552 0.847358 66.5336 1.19002L59.8581 4.21989C59.1364 4.54452 58.8117 5.41019 59.1545 6.13159L60.9406 10.0271C60.3993 10.5321 59.8761 11.0732 59.407 11.6503L55.3476 10.1353C54.6079 9.86482 53.778 10.2436 53.4893 10.983L50.9274 17.8723C50.6567 18.6118 51.0356 19.4414 51.7753 19.7299L55.8348 21.2449C55.7987 22.0023 55.8167 22.7598 55.9069 23.4992L52.0099 25.3027C51.2882 25.6273 50.9635 26.493 51.3063 27.2144L54.3553 33.9054C54.6801 34.6268 55.5461 34.9514 56.2678 34.6087L60.1107 32.8593C60.6339 33.4184 61.1932 33.9595 61.7886 34.4464L60.3091 38.3961C60.0385 39.1355 60.4174 39.9651 61.1571 40.2537L68.031 42.8327C68.7708 43.1032 69.6007 42.7245 69.8894 41.985L71.3327 38.1255C72.1265 38.1616 72.9204 38.1436 73.7142 38.0534L75.4102 41.7686C75.7349 42.49 76.6009 42.8146 77.3226 42.472L84.0161 39.4241C84.7378 39.0994 85.0625 38.2338 84.7198 37.5124L83.0238 33.7972C83.6192 33.2381 84.1785 32.6429 84.6837 32.0117L88.4905 33.4365C89.2302 33.707 90.0601 33.3283 90.3488 32.5888L92.9288 25.7175C93.1633 24.9781 92.8025 24.1485 92.0808 23.8599ZM76.7813 23.6976C75.753 26.3668 72.7761 27.7014 70.1059 26.7094L70.0878 26.7455C67.3996 25.7356 66.0284 22.7418 67.0387 20.0546C68.0491 17.3673 71.044 15.9967 73.7323 17.0066C76.4205 18.0166 77.7917 21.0104 76.7813 23.6976ZM69.2218 14.2653H69.2398C69.2398 14.2473 69.2218 14.2653 69.2218 14.2653Z" fill="#FF5253"/>
</svg>
