<svg width="165" height="51" viewBox="0 0 165 51" fill="none" xmlns="http://www.w3.org/2000/svg">
<path d="M18.9 30.8099C18.6545 31.4699 18.2455 32.0099 17.7 32.3999C17.1545 32.8199 16.5818 33.0299 16.0091 33.0299H8.80909C8.23637 33.0299 7.82728 32.8199 7.60909 32.3999C7.39091 31.9799 7.41818 31.4399 7.66364 30.8099L18.1091 3.9899C18.3545 3.3299 18.7636 2.8199 19.2818 2.3999C19.8 1.9799 20.3727 1.7699 20.9455 1.7699H28.1455C28.7182 1.7699 29.1273 1.9799 29.3455 2.3999C29.5636 2.8199 29.5364 3.3599 29.2909 3.9899L26.5364 11.2799H24.0273L26.7545 4.2599H20.5364L10.2818 30.5999H16.5L19.5 22.9199H22.0091L18.9 30.8099Z" fill="white"/>
<path d="M33.6818 33.03H31.2L32.9182 26.07H27.3545L23.6727 33.03H21.2727L21.3 32.94L38.4818 1.70996H40.9364L33.6818 33.03ZM33.5727 23.64L37.7182 6.68996L28.6636 23.64H33.5727Z" fill="white"/>
<path d="M48.9546 33.0299H46.3364L47.6455 16.2899L48.1909 15.7199H52.6364L57.1091 4.2299H50.7273L39.5182 33.0299H37.0364L49.2273 1.7699H58.6091C59.1818 1.7699 59.5909 1.9799 59.8091 2.3999C60.0273 2.8199 60 3.3599 59.7546 3.9899L55.0909 15.8699C54.5182 17.3699 53.3182 18.1199 51.4909 18.1199C51.3 18.1199 51.0546 18.1199 50.7273 18.0899C50.4 18.0599 50.1546 18.0599 49.9909 18.0599C49.6364 23.0399 49.3091 28.0199 48.9546 33.0299Z" fill="white"/>
<path d="M71.6182 30.8099C71.3727 31.4699 70.9636 32.0099 70.4455 32.3999C69.9273 32.8199 69.3546 33.0299 68.7818 33.0299H61.7455C61.1727 33.0299 60.7636 32.8199 60.5455 32.3999C60.3273 31.9799 60.3546 31.4399 60.6 30.8099L63.6818 22.8899H66.1637L63.1636 30.5699H69.2182L72.1091 23.1299L68.4546 12.7199C68.2091 11.9999 68.2364 11.2199 68.5636 10.3499L71.0182 4.01993C71.2636 3.35993 71.6727 2.84993 72.1909 2.42993C72.7364 2.00993 73.2818 1.79993 73.8818 1.79993H80.9182C81.4909 1.79993 81.9 2.00993 82.0909 2.42993C82.2818 2.84993 82.2818 3.38993 82.0091 4.01993L79.1727 11.2799H76.6909L79.4182 4.25993H73.3637L70.8 10.8599L74.5091 21.2999C74.7546 21.9899 74.7 22.7699 74.3727 23.6399L71.6182 30.8099Z" fill="white"/>
<path d="M84.3545 33.0299H75.1636L87.3273 1.7699H96.4091L95.4545 4.2299H88.8545L84.3273 15.8999H90.3273L89.3455 18.3899H83.3455L78.6 30.5699H85.3091L84.3545 33.0299Z" fill="white"/>
<path d="M100.145 33.0299H97.5273L98.8364 16.2899L99.3818 15.7199H103.827L108.3 4.2299H101.918L90.7091 33.0299H88.2273L100.391 1.7699H109.773C110.345 1.7699 110.755 1.9799 110.973 2.3999C111.191 2.8199 111.164 3.3599 110.918 3.9899L106.309 15.8399C105.736 17.3399 104.536 18.0899 102.709 18.0899C102.518 18.0899 102.273 18.0899 101.945 18.0599C101.618 18.0299 101.373 18.0299 101.209 18.0299C100.827 23.0399 100.5 28.0199 100.145 33.0299Z" fill="white"/>
<path d="M126.955 1.7699L109.909 33.1199H107.564L114.927 1.7699H117.409L111.191 26.6699L110.509 28.7099C110.7 28.2299 111 27.5699 111.436 26.6699L124.609 1.7699H126.955Z" fill="white"/>
<path d="M120.791 33.0299H118.309L130.473 1.7699H132.955L120.791 33.0299Z" fill="white"/>
<path d="M137.536 30.8099C137.291 31.4699 136.882 32.0099 136.336 32.3999C135.791 32.8199 135.218 33.0299 134.645 33.0299H127.445C126.873 33.0299 126.464 32.8199 126.245 32.3999C126.027 31.9799 126.055 31.4399 126.3 30.8099L136.745 3.9899C136.991 3.3299 137.4 2.8199 137.918 2.3999C138.436 1.9799 139.009 1.7699 139.582 1.7699H146.782C147.355 1.7699 147.764 1.9799 147.982 2.3999C148.2 2.8199 148.173 3.3599 147.927 3.9899L145.091 11.2499H142.636L145.364 4.2299H139.145L128.891 30.5699H135.109L138.109 22.8899H140.618L137.536 30.8099Z" fill="white"/>
<path d="M150.218 33.0299H141.027L153.191 1.7699H162.273L161.318 4.2299H154.718L150.164 15.8999H156.164L155.182 18.3899H149.182L144.436 30.5699H151.145L150.218 33.0299Z" fill="white"/>
<path d="M5.48182 36.8099H6.62727L3.16364 45.6899H6.98182L6.57273 46.7699H1.58182L5.48182 36.8099Z" fill="white"/>
<path d="M14.8091 43.14C13.7727 45.78 11.7 46.95 10.1455 46.95C8.40001 46.95 7.63637 45.54 8.5091 43.26C9.43637 40.86 11.4 39.45 13.1727 39.45C15 39.48 15.6818 40.95 14.8091 43.14ZM9.7091 43.23C9.1091 44.79 9.43637 45.99 10.5818 45.99C11.7 45.99 12.9818 44.82 13.6091 43.2C14.0727 42 14.1273 40.44 12.7636 40.44C11.4 40.44 10.2546 41.85 9.7091 43.23Z" fill="white"/>
<path d="M23.1818 39.63C22.9636 40.14 22.6909 40.71 22.3636 41.58L20.7545 45.7199C20.1273 47.3699 19.4455 48.36 18.5727 48.99C17.7 49.65 16.7182 49.86 15.9 49.86C15.1364 49.86 14.3727 49.65 13.9909 49.26L14.6727 48.2699C14.9727 48.57 15.5455 48.84 16.3364 48.84C17.5364 48.84 18.6818 48.15 19.3636 46.35L19.6636 45.54H19.6364C19.0091 46.2 18.1364 46.74 17.1273 46.74C15.5455 46.74 15 45.24 15.7636 43.26C16.7182 40.83 18.6545 39.45 20.1273 39.45C21.2455 39.45 21.6 40.11 21.6545 40.68H21.6818L22.1455 39.6H23.1818V39.63ZM20.8636 42.45C20.9455 42.24 21 42.03 21.0273 41.85C21.1091 41.1 20.7818 40.4699 19.9364 40.4699C18.8182 40.4699 17.6182 41.5199 16.9909 43.1699C16.4455 44.5799 16.6364 45.75 17.8909 45.75C18.6 45.75 19.4455 45.24 20.0182 44.43C20.1818 44.22 20.2909 43.95 20.3727 43.74L20.8636 42.45Z" fill="white"/>
<path d="M29.4818 43.14C28.4454 45.78 26.3727 46.95 24.8182 46.95C23.0727 46.95 22.3091 45.54 23.1818 43.26C24.1091 40.86 26.0727 39.45 27.8454 39.45C29.6727 39.48 30.3273 40.95 29.4818 43.14ZM24.3818 43.23C23.7818 44.79 24.1091 45.99 25.2545 45.99C26.3727 45.99 27.6545 44.82 28.2818 43.2C28.7454 42 28.8 40.44 27.4363 40.44C26.0454 40.44 24.9 41.85 24.3818 43.23Z" fill="white"/>
<path d="M34.5273 37.59L33.7364 39.63H35.4L35.0182 40.62H33.3545L31.8545 44.49C31.5 45.39 31.5273 45.87 32.1818 45.87C32.4818 45.87 32.7273 45.84 32.8909 45.78L32.5636 46.74C32.2909 46.83 31.9091 46.92 31.4727 46.92C30.9273 46.92 30.5727 46.74 30.4364 46.38C30.2455 45.99 30.3818 45.36 30.7091 44.52L32.2364 40.62H31.2545L31.6364 39.63H32.6182L33.2727 37.92L34.5273 37.59Z" fill="white"/>
<path d="M38.7818 37.6199C38.6182 38.0699 38.1818 38.4299 37.7182 38.4299C37.3091 38.4299 37.1455 38.0699 37.3364 37.6199C37.5273 37.1699 37.9636 36.8099 38.3727 36.8099C38.8091 36.8099 38.9455 37.1699 38.7818 37.6199ZM33.9 46.7699L36.6818 39.6299H37.8545L35.0727 46.7699H33.9Z" fill="white"/>
<path d="M38.8909 41.97C39.2455 41.04 39.5182 40.32 39.7364 39.63H40.7727L40.3364 40.86H40.3636C41.1818 39.99 42.1364 39.48 43.1727 39.48C44.7273 39.48 45.3273 40.95 44.4818 43.11C43.4727 45.69 41.5909 46.95 40.0636 46.95C39.2182 46.95 38.6455 46.53 38.5364 45.84H38.5091L37.0091 49.71H35.8636L38.8909 41.97ZM39.3 43.86C39.2182 44.04 39.1909 44.22 39.1364 44.4C39 45.3 39.4636 45.93 40.2818 45.93C41.5091 45.93 42.6546 44.82 43.3091 43.17C43.8546 41.73 43.6637 40.5 42.4364 40.5C41.6455 40.5 40.6636 41.13 40.0636 42.12C39.9546 42.27 39.8455 42.48 39.7637 42.66L39.3 43.86Z" fill="white"/>
</svg>
