<svg width="15" height="13" viewBox="0 0 15 13" fill="none" xmlns="http://www.w3.org/2000/svg">
<path d="M8.9213 1.08731L5.09789 1.98684V12.1867L8.9213 11.512V1.08731ZM9.17594 0.510742C9.23304 0.510742 9.28886 0.529859 9.33449 0.565799C9.39541 0.613974 9.43109 0.687639 9.43109 0.765637V11.7261C9.43109 11.8497 9.34239 11.9555 9.22055 11.9769L4.88734 12.7416C4.87256 12.7444 4.85777 12.7457 4.84299 12.7457C4.7836 12.7457 4.72548 12.7248 4.67909 12.686C4.62149 12.6376 4.5881 12.566 4.5881 12.4908V1.78521C4.5881 1.66694 4.66941 1.56422 4.78462 1.53695L9.11783 0.517369C9.1372 0.512781 9.15657 0.510742 9.17594 0.510742Z" fill="#A6A6A6"/>
<path d="M0.105986 0.0483018C0.172513 0.00038163 0.258159 -0.0131277 0.335647 0.0133813L4.92375 1.54275C5.02774 1.57741 5.09784 1.67478 5.09784 1.78464V12.4902C5.09784 12.5743 5.05629 12.6531 4.98671 12.7005C4.94388 12.7298 4.89341 12.7451 4.84294 12.7451C4.81159 12.7451 4.7805 12.7395 4.75067 12.7278L0.162573 10.9435C0.0644383 10.9053 -5.00679e-05 10.811 -5.00679e-05 10.7059V0.255276C-5.00679e-05 0.1732 0.0392041 0.0964768 0.105986 0.0483018Z" fill="#A6A6A6"/>
<path d="M9.23148 0.515515L13.8196 1.53509C13.9361 1.56135 14.0192 1.66458 14.0192 1.78413V12.7446C14.0192 12.8221 13.984 12.895 13.9236 12.9434C13.878 12.9801 13.8216 12.9995 13.7643 12.9995C13.7459 12.9995 13.7273 12.9974 13.709 12.9936L9.12086 11.974C9.00437 11.9478 8.92128 11.8443 8.92128 11.725V0.764547C8.92128 0.687059 8.95645 0.61416 9.01686 0.56573C9.07676 0.5173 9.15578 0.499457 9.23148 0.515515Z" fill="#A6A6A6"/>
</svg>
