<svg width="59" height="57" viewBox="0 0 59 57" fill="none" xmlns="http://www.w3.org/2000/svg">
<path d="M58.4712 0.156468C58.1434 -0.042384 57.7348 -0.0511247 57.3972 0.126968L39.3333 9.69043L21.2706 0.126968C21.2564 0.11932 21.24 0.117134 21.2258 0.110579C21.1734 0.0854493 21.1198 0.0668753 21.0652 0.0504864C21.0346 0.0417457 21.0051 0.0319123 20.9745 0.0253568C20.9144 0.0133383 20.8532 0.00896793 20.7909 0.00678275C20.7636 0.00569015 20.7363 0.00241235 20.7079 0.00350495C20.6489 0.00678272 20.591 0.0177086 20.5331 0.0308197C20.5003 0.0373753 20.4675 0.0417457 20.4359 0.0515791C20.4282 0.0537642 20.4206 0.0537642 20.414 0.0559494L0.747333 6.61151C0.300463 6.7601 0 7.17747 0 7.64838V54.6299C0 54.9806 0.168259 55.3105 0.454519 55.517C0.642444 55.6514 0.866426 55.7224 1.09259 55.7224C1.20841 55.7224 1.32531 55.7039 1.43785 55.6656L20.7177 49.239L38.9171 56.7331C38.9324 56.7397 38.9498 56.7375 38.9651 56.7429C39.0853 56.7855 39.2077 56.815 39.3333 56.815C39.4317 56.815 39.5289 56.7986 39.624 56.7724C39.6546 56.7637 39.683 56.7495 39.7136 56.7386C39.7573 56.7222 39.8031 56.7102 39.8447 56.6883L58.4187 46.855C58.776 46.6659 59 46.2934 59 45.8891V1.09282C59 0.70932 58.799 0.354227 58.4712 0.156468ZM2.18519 8.43613L19.6667 2.60934V32.1006C19.1969 32.1858 18.7336 32.282 18.2856 32.4C17.7022 32.5551 17.3547 33.1528 17.5099 33.7362C17.6399 34.2257 18.0813 34.5491 18.5653 34.5491C18.6571 34.5491 18.7522 34.5371 18.8461 34.513C19.1084 34.4431 19.3946 34.4082 19.6667 34.3513V47.2876L2.18519 53.1133V8.43613ZM21.8519 34.0454C22.2026 34.0181 22.5424 33.9733 22.9018 33.9657C23.5049 33.9525 23.9835 33.4532 23.9715 32.8501C23.9584 32.2547 23.4722 31.7805 22.8789 31.7805C22.8712 31.7805 22.8625 31.7805 22.8549 31.7805C22.5161 31.7881 22.1829 31.8067 21.8519 31.8296V2.90762L38.2407 11.5839V34.7403C37.4606 34.7064 36.6674 34.6147 35.8359 34.454C35.2416 34.3371 34.6702 34.7261 34.5554 35.3183C34.4407 35.9105 34.8286 36.4841 35.4208 36.5988C36.3888 36.7867 37.3284 36.8785 38.2418 36.9146V54.0912L21.8519 47.3423V34.0454ZM56.8148 45.2303L40.4259 53.9066V36.7966C40.8324 36.6119 41.1033 36.1967 41.0673 35.7258C41.0356 35.3172 40.7734 34.9894 40.4259 34.8288V11.5839L56.8148 2.90762V45.2303Z" fill="#FF5253"/>
<path d="M12.0185 8.74097C9.00623 8.74097 6.55554 11.1917 6.55554 14.2039C6.55554 16.8425 8.43589 19.0485 10.9259 19.5565V21.8521C10.9259 22.4563 11.4154 22.9447 12.0185 22.9447C12.6216 22.9447 13.1111 22.4563 13.1111 21.8521V19.5565C15.6011 19.0485 17.4815 16.8425 17.4815 14.2039C17.4815 11.1917 15.0308 8.74097 12.0185 8.74097ZM12.0185 17.4817C10.2114 17.4817 8.74073 16.0111 8.74073 14.2039C8.74073 12.3968 10.2114 10.9262 12.0185 10.9262C13.8257 10.9262 15.2963 12.3968 15.2963 14.2039C15.2963 16.0111 13.8257 17.4817 12.0185 17.4817Z" fill="#FF5253"/>
<path d="M49.2432 29.1429C49.3743 29.1943 49.5087 29.2172 49.6409 29.2172C50.0779 29.2172 50.4898 28.9539 50.6592 28.5223C51.1727 27.2123 51.5846 25.733 51.8862 24.1257C51.9976 23.5336 51.6064 22.9632 51.0132 22.8507C50.4166 22.7524 49.8496 23.1315 49.7381 23.7248C49.4628 25.1976 49.088 26.5437 48.6248 27.7269C48.4052 28.2874 48.6816 28.9222 49.2432 29.1429Z" fill="#FF5253"/>
<path d="M13.9906 34.2443C12.6719 35.0714 11.4831 36.1072 10.4561 37.3254C10.0671 37.7865 10.1261 38.4759 10.5872 38.8649C10.7926 39.0375 11.0428 39.1216 11.2908 39.1216C11.6022 39.1216 11.9103 38.9894 12.1267 38.7337C13.0073 37.6892 14.0245 36.801 15.151 36.0962C15.6623 35.775 15.8164 35.1009 15.4962 34.5895C15.1761 34.0782 14.5009 33.9231 13.9906 34.2443Z" fill="#FF5253"/>
<path d="M9.42579 40.7277C8.87731 40.4764 8.22831 40.7135 7.97592 41.262C6.85492 43.6941 6.5774 45.6575 6.56538 45.7405C6.48344 46.3382 6.90081 46.8878 7.49846 46.9697C7.54872 46.9774 7.60007 46.9806 7.64924 46.9806C8.1857 46.9806 8.65333 46.5851 8.7309 46.0399C8.73309 46.0224 8.98329 44.295 9.96007 42.1787C10.2125 41.6291 9.97318 40.9812 9.42579 40.7277Z" fill="#FF5253"/>
<path d="M44.1659 35.7597C44.3331 35.7597 44.5035 35.7214 44.6619 35.6406C46.0736 34.9184 47.318 33.8935 48.3593 32.5966C48.7373 32.1257 48.6619 31.4374 48.191 31.0604C47.7212 30.6857 47.0329 30.7589 46.6548 31.2287C45.807 32.2852 44.8018 33.1145 43.6666 33.6947C43.129 33.97 42.916 34.6277 43.1913 35.1653C43.3858 35.5422 43.7693 35.7597 44.1659 35.7597Z" fill="#FF5253"/>
<path d="M31.8709 33.25C31.3891 33.0478 31.1072 32.908 31.0886 32.8982C31.0176 32.8621 30.9422 32.8326 30.8646 32.8129C29.6814 32.5092 28.5156 32.2688 27.3978 32.0984C26.8024 32.0044 26.2441 32.4163 26.1523 33.0129C26.0616 33.6094 26.4713 34.1678 27.0679 34.2584C28.0796 34.4136 29.1361 34.6299 30.2113 34.9031C30.3577 34.973 30.6374 35.1052 31.0285 35.268C31.1662 35.3259 31.3093 35.3521 31.4492 35.3521C31.8764 35.3521 32.2828 35.1008 32.4576 34.6813C32.6904 34.1219 32.4281 33.4816 31.8709 33.25Z" fill="#FF5253"/>
<path d="M51.2677 20.6841C51.2918 20.6852 51.3147 20.6863 51.3387 20.6863C51.9102 20.6863 52.3909 20.2427 52.428 19.6625C52.4958 18.6125 52.5297 17.5014 52.5297 16.3629C52.5297 15.9838 52.5264 15.5992 52.5187 15.2069C52.5078 14.6027 51.9834 14.1438 51.4065 14.134C50.8034 14.1449 50.3226 14.6432 50.3335 15.2463C50.3401 15.6254 50.3445 15.998 50.3445 16.3629C50.3445 17.4555 50.3117 18.5186 50.2472 19.5238C50.209 20.1258 50.6657 20.6448 51.2677 20.6841Z" fill="#FF5253"/>
<path d="M9.06088 30.2727C9.27394 30.4858 9.55364 30.5928 9.83334 30.5928C10.113 30.5928 10.3928 30.4858 10.6058 30.2727L12.0185 28.86L13.4313 30.2727C13.6443 30.4858 13.924 30.5928 14.2037 30.5928C14.4834 30.5928 14.7631 30.4858 14.9762 30.2727C15.4034 29.8455 15.4034 29.155 14.9762 28.7278L13.5635 27.3151L14.9762 25.9023C15.4034 25.4751 15.4034 24.7846 14.9762 24.3574C14.549 23.9302 13.8585 23.9302 13.4313 24.3574L12.0185 25.7701L10.6058 24.3574C10.1786 23.9302 9.48808 23.9302 9.06088 24.3574C8.63368 24.7846 8.63368 25.4751 9.06088 25.9023L10.4736 27.3151L9.06088 28.7278C8.63368 29.1539 8.63368 29.8455 9.06088 30.2727Z" fill="#FF5253"/>
</svg>
