<svg width="14" height="11" viewBox="0 0 14 11" fill="none" xmlns="http://www.w3.org/2000/svg">
<path d="M1.34428 3.39048C1.52137 3.51545 2.05519 3.8866 2.94577 4.50374C3.83637 5.12087 4.51863 5.59605 4.99258 5.9293C5.04465 5.96583 5.15528 6.04524 5.32451 6.16763C5.49378 6.29011 5.63442 6.38908 5.74634 6.46457C5.85833 6.54004 5.99372 6.6247 6.15265 6.71842C6.31151 6.81205 6.46127 6.88248 6.60189 6.92911C6.74253 6.97612 6.87272 6.9994 6.99249 6.9994H7.00034H7.00822C7.12799 6.9994 7.25824 6.97609 7.39888 6.92911C7.53944 6.88248 7.68934 6.81197 7.84807 6.71842C8.00688 6.62459 8.14227 6.54001 8.25427 6.46457C8.36626 6.38908 8.5068 6.29011 8.67612 6.16763C8.84533 6.04513 8.95609 5.96583 9.00816 5.9293C9.48723 5.59605 10.706 4.7497 12.6642 3.39032C13.0444 3.12482 13.362 2.80446 13.6172 2.42945C13.8725 2.05461 14.0001 1.66138 14.0001 1.24998C14.0001 0.906198 13.8763 0.611912 13.6289 0.367153C13.3815 0.122339 13.0885 0 12.7501 0H1.25051C0.849511 0 0.540914 0.135391 0.324776 0.406172C0.108666 0.677008 0.000610352 1.01554 0.000610352 1.42174C0.000610352 1.74984 0.143881 2.1054 0.430287 2.48817C0.716665 2.87098 1.02143 3.17177 1.34428 3.39048Z" fill="#A6A6A6"/>
<path d="M13.2182 4.22651C11.5101 5.38261 10.2131 6.28109 9.32781 6.92176C9.03095 7.14042 8.79013 7.31111 8.60518 7.43342C8.42024 7.55581 8.17428 7.6808 7.86694 7.80834C7.55971 7.93607 7.27339 7.99974 7.00772 7.99974H6.99976H6.99191C6.7263 7.99974 6.43981 7.93607 6.13258 7.80834C5.82535 7.6808 5.57923 7.55581 5.39434 7.43342C5.2095 7.31111 4.9686 7.14042 4.67177 6.92176C3.96863 6.40619 2.67443 5.50766 0.789113 4.22651C0.492173 4.02873 0.229163 3.80203 0 3.54688V9.74959C0 10.0935 0.122339 10.3877 0.367153 10.6324C0.611912 10.8773 0.906225 10.9997 1.24998 10.9997H12.7496C13.0933 10.9997 13.3876 10.8773 13.6323 10.6324C13.8772 10.3876 13.9995 10.0936 13.9995 9.74959V3.54688C13.7755 3.79675 13.5152 4.02345 13.2182 4.22651Z" fill="#A6A6A6"/>
</svg>
