<svg width="14" height="14" viewBox="0 0 14 14" fill="none" xmlns="http://www.w3.org/2000/svg">
<path d="M13.9702 10.8481C13.9306 10.7288 13.6787 10.553 13.2146 10.3212C13.0888 10.2481 12.9097 10.1488 12.6779 10.0228C12.4458 9.89686 12.2352 9.78078 12.0464 9.67469C11.8572 9.56864 11.68 9.4659 11.5144 9.3666C11.4879 9.34672 11.4051 9.2888 11.2659 9.19246C11.1265 9.09641 11.009 9.02511 10.9127 8.97862C10.8166 8.9324 10.7221 8.90914 10.6293 8.90914C10.4967 8.90914 10.3311 9.00366 10.1323 9.19246C9.93353 9.38151 9.75118 9.58686 9.58553 9.80913C9.41986 10.0313 9.24415 10.2366 9.05872 10.4256C8.87302 10.6146 8.72044 10.709 8.60126 10.709C8.54142 10.709 8.46682 10.6923 8.37742 10.6594C8.28805 10.6263 8.22006 10.5979 8.17339 10.575C8.12714 10.5517 8.04777 10.5054 7.93499 10.4356C7.82201 10.366 7.75918 10.3278 7.74595 10.3212C6.8378 9.81724 6.05894 9.24049 5.40922 8.59105C4.75972 7.94123 4.18289 7.16244 3.6791 6.25419C3.67249 6.24092 3.63428 6.17792 3.56473 6.06528C3.49507 5.95254 3.44865 5.8731 3.42545 5.82657C3.40225 5.78021 3.37408 5.71223 3.34099 5.62276C3.3079 5.53328 3.29129 5.45875 3.29129 5.39902C3.29129 5.27977 3.38578 5.12722 3.57472 4.94159C3.76363 4.75606 3.96919 4.58032 4.19118 4.41471C4.41335 4.2491 4.6187 4.06674 4.80767 3.86794C4.99658 3.66904 5.09103 3.5034 5.09103 3.37084C5.09103 3.27809 5.06784 3.18353 5.02148 3.08744C4.97509 2.99114 4.90383 2.87363 4.80767 2.73436C4.71148 2.59515 4.65349 2.51236 4.63357 2.48572C4.53424 2.32011 4.4316 2.1428 4.32541 1.95386C4.21922 1.76495 4.10331 1.55438 3.9773 1.32239C3.8514 1.0905 3.75203 0.911452 3.67903 0.785513C3.44715 0.321568 3.27151 0.0695518 3.15215 0.0299174C3.10573 0.0100305 3.03607 0 2.94336 0C2.76427 0 2.53065 0.0330867 2.2423 0.0994691C1.95386 0.165747 1.72688 0.235264 1.56114 0.308298C1.22968 0.447437 0.878365 0.851791 0.507097 1.52122C0.169021 2.14423 0 2.76086 0 3.37066C0 3.54951 0.0115978 3.72351 0.0347933 3.8927C0.0579888 4.06172 0.0994343 4.25234 0.159164 4.46451C0.21879 4.67661 0.266888 4.83418 0.303248 4.93678C0.339644 5.03945 0.407593 5.22338 0.507063 5.48863C0.606392 5.75381 0.666123 5.91615 0.686009 5.97581C0.917999 6.62549 1.19311 7.20548 1.51126 7.71596C2.03473 8.56444 2.74909 9.44131 3.65392 10.3462C4.55879 11.251 5.43548 11.9654 6.28404 12.489C6.79444 12.8072 7.37464 13.0822 8.02422 13.3144C8.08392 13.3342 8.24625 13.3938 8.51133 13.4935C8.77651 13.5929 8.96051 13.6608 9.06318 13.6973C9.16589 13.7338 9.32349 13.7819 9.53542 13.8416C9.7478 13.9014 9.93824 13.9428 10.1073 13.9662C10.2764 13.9891 10.4504 14.0009 10.6293 14.0009C11.2391 14.0009 11.8557 13.8317 12.4788 13.4937C13.1482 13.1226 13.5525 12.7712 13.6917 12.4395C13.7649 12.2739 13.8342 12.0469 13.9005 11.7584C13.967 11.4701 14 11.2365 14 11.0575C14.0002 10.9644 13.9902 10.8949 13.9702 10.8481Z" fill="#A6A6A6"/>
</svg>
