<svg width="49" height="49" viewBox="0 0 49 49" fill="none" xmlns="http://www.w3.org/2000/svg">
<path d="M9.89137 32.5732C14.724 38.35 20.5414 42.8983 27.1812 46.1167C29.7091 47.3147 33.0899 48.736 36.8565 48.9797C37.09 48.9898 37.3134 49 37.5469 49C40.0749 49 42.1054 48.1269 43.7603 46.3299C43.7704 46.3197 43.7907 46.2994 43.8009 46.2791C44.3897 45.5684 45.0598 44.9288 45.7603 44.2486C46.2375 43.7917 46.7248 43.3146 47.1918 42.8272C49.3543 40.5734 49.3543 37.7104 47.1715 35.5276L41.0698 29.4259C40.0343 28.3497 38.7957 27.7812 37.4962 27.7812C36.1966 27.7812 34.9479 28.3497 33.8818 29.4157L30.2472 33.0503C29.9122 32.8574 29.567 32.6848 29.2421 32.5224C28.836 32.3194 28.4604 32.1264 28.1253 31.9132C24.8156 29.8117 21.8105 27.0705 18.9373 23.5475C17.4855 21.7099 16.5108 20.1667 15.8306 18.5931C16.7849 17.7301 17.6784 16.8266 18.5413 15.9433C18.8459 15.6286 19.1606 15.3138 19.4754 14.9991C20.5718 13.9026 21.1607 12.6336 21.1607 11.3442C21.1607 10.0548 20.582 8.78574 19.4754 7.68926L16.4499 4.66381C16.0946 4.30847 15.7595 3.96328 15.4144 3.60794C14.7443 2.91757 14.0438 2.20689 13.3534 1.56728C12.3077 0.541869 11.0792 0.00378418 9.77969 0.00378418C8.49031 0.00378418 7.2517 0.541869 6.16538 1.57743L2.36833 5.37448C0.987578 6.75523 0.205832 8.4304 0.0433911 10.3695C-0.149507 12.796 0.297205 15.3747 1.4546 18.4916C3.23129 23.314 5.91157 27.7913 9.89137 32.5732ZM2.52061 10.5827C2.64244 9.23245 3.16022 8.10552 4.13487 7.13087L7.91162 3.35413C8.50047 2.78558 9.15023 2.49116 9.77969 2.49116C10.399 2.49116 11.0285 2.78558 11.6071 3.37443C12.2874 4.00389 12.927 4.6638 13.6174 5.36433C13.9625 5.71967 14.3179 6.07501 14.6732 6.4405L17.6987 9.46596C18.3281 10.0954 18.653 10.735 18.653 11.3645C18.653 11.9939 18.3281 12.6336 17.6987 13.263C17.3839 13.5777 17.0692 13.9026 16.7545 14.2174C15.8103 15.1717 14.927 16.0753 13.9524 16.9382C13.9321 16.9585 13.9219 16.9687 13.9016 16.989C13.059 17.8317 13.1909 18.6337 13.394 19.2429C13.4041 19.2733 13.4143 19.2936 13.4245 19.3241C14.2062 21.2023 15.2925 22.9892 16.988 25.1212C20.0338 28.8776 23.242 31.7914 26.7751 34.0351C27.2116 34.3194 27.6786 34.5428 28.1152 34.7661C28.5213 34.9692 28.8969 35.1621 29.232 35.3753C29.2726 35.3956 29.303 35.4159 29.3437 35.4362C29.6787 35.6088 30.0036 35.69 30.3284 35.69C31.1407 35.69 31.6686 35.1722 31.8412 34.9996L35.6382 31.2026C36.2271 30.6137 36.8667 30.299 37.4962 30.299C38.2677 30.299 38.8972 30.7762 39.2932 31.2026L45.4151 37.3144C46.6334 38.5327 46.6233 39.8525 45.3847 41.1419C44.9583 41.5988 44.5116 42.0353 44.0344 42.4922C43.3237 43.1826 42.5826 43.8933 41.9125 44.6953C40.745 45.9542 39.3541 46.5431 37.5571 46.5431C37.3845 46.5431 37.2017 46.5329 37.0291 46.5228C33.6991 46.3096 30.6026 45.01 28.2776 43.9034C21.9627 40.8475 16.4195 36.5124 11.8203 31.0097C8.03345 26.4512 5.48516 22.2074 3.79983 17.6591C2.75412 14.8671 2.35817 12.6234 2.52061 10.5827Z" fill="#FF5253"/>
</svg>
