<svg width="96" height="122" viewBox="0 0 96 122" fill="none" xmlns="http://www.w3.org/2000/svg">
<path d="M38.75 40.15V48H11.5V41.8L24.6 29.55C25.8667 28.35 26.7167 27.3333 27.15 26.5C27.5833 25.6333 27.8 24.7667 27.8 23.9C27.8 22.7667 27.4167 21.8833 26.65 21.25C25.8833 20.6167 24.7667 20.3 23.3 20.3C22 20.3 20.8 20.6 19.7 21.2C18.6333 21.7667 17.75 22.6 17.05 23.7L9.7 19.6C11.0667 17.3333 12.9833 15.55 15.45 14.25C17.9167 12.95 20.8333 12.3 24.2 12.3C26.8667 12.3 29.2167 12.7333 31.25 13.6C33.3167 14.4667 34.9167 15.7167 36.05 17.35C37.2167 18.95 37.8 20.8167 37.8 22.95C37.8 24.85 37.3833 26.65 36.55 28.35C35.75 30.0167 34.1833 31.9167 31.85 34.05L25.25 40.15H38.75ZM74.3875 41.3H69.1875V48H59.5375V41.3H41.0375V34.85L56.7375 13H66.9875L52.7375 33.45H59.8375V27.5H69.1875V33.45H74.3875V41.3Z" fill="#FF5253"/>
<path d="M58.15 68V74.2L45.8 103H35L46.8 75.85H37.6V81.25H29.15V68H58.15Z" fill="#FF5253"/>
<rect y="55" width="82" height="6" fill="#FF5253"/>
</svg>
